<?xml version="1.0" encoding="UTF-8"?>
<svg id="Layer_2" data-name="Layer 2" xmlns="http://www.w3.org/2000/svg" viewBox="0 0 180.9 177.91">
  <defs>
    <style>
      .cls-1 {
        fill: #fff;
        stroke: #000;
        stroke-miterlimit: 10;
      }
    </style>
  </defs>
  <g id="Layer_1-2" data-name="Layer 1">
    <path class="cls-1" d="m180.24,40.92l-12.99-4.07-3.24,10.75C141.37,8.3,94.19-11.31,52.18,8.02,7.66,28.5-11.84,81.2,8.64,125.73s73.19,64.02,117.72,43.54c27.11-12.47,44.93-36.87,50.11-64.11l-8.48.42-11.36.57c-5.09,19.5-18.54,36.64-38.28,45.72-34.92,16.07-76.24.78-92.31-34.15-16.06-34.91-.78-76.24,34.14-92.3,31.54-14.51,66.23-.08,84.88,27.94l-8.5-2.56-3.66,12.11,33.75,12.79,13.58-34.78Z"/>
  </g>
</svg>